#!OML:ASF F:\VICON\USERDATA\INSTALL\Justin_Nancy\Justin_Nancy.ASF
:FULLY-SPECIFIED
:DEGREES
17
root 0.256792 16.3734 -34.3933 21.2631 0.293399 -1.68649
lowerback 10.1034 -1.87243 -1.67914
upperback -1.07896 -2.20834 7.62349
thorax -6.47136 -0.880398 9.50766
lowerneck -6.52058 -0.697995 -15.878
upperneck 4.65459 0.171228 5.50869
head 2.4309 -0.0135353 4.22853
rclavicle -1.19271e-014 -1.59028e-015
rhumerus -32.4277 17.6613 -84.9012
rradius 57.9055
rwrist -4.64454
rhand -16.5818 10.708
rfingers 7.12502
rthumb 9.63882 -19.0515
lclavicle -1.19271e-014 -1.59028e-015
lhumerus -46.6457 18.4571 85.6829
lradius 46.8486
lwrist 7.61584
lhand -14.1946 23.1009
lfingers 7.12502
lthumb 11.9414 52.7404
rfemur -3.52164 2.8547 27.5548
rtibia 19.8123
rfoot -26.3745 -7.8938
rtoes -11.4527
lfemur -53.4681 7.77297 -14.8251
ltibia 82.7987
lfoot -12.4296 -4.53443
ltoes -10.4979
18
root 0.257006 16.3422 -34.246 21.5949 -0.0348843 -1.93023
lowerback 9.30409 -0.172775 1.63526
upperback 0.176495 0.211732 5.11242
thorax -5.06128 0.126845 4.40937
lowerneck -9.18141 -2.94319 -13.0108
upperneck 4.65153 -2.80295 6.57267
head 3.15041 -1.3628 3.95129
rclavicle 5.96354e-015 6.99722e-014
rhumerus -30.1167 10.6714 -85.781
rradius 59.7685
rwrist -3.14508
rhand -16.4715 10.7588
rfingers 7.12502
rthumb 9.74527 -18.9958
lclavicle 5.96354e-015 6.99722e-014
lhumerus -43.5712 11.3953 85.5514
lradius 47.361
lwrist 8.3786
lhand -14.821 22.8261
lfingers 7.12502
lthumb 11.3374 52.4996
rfemur -2.63656 3.03189 27.6047
rtibia 18.6073
rfoot -25.9247 -7.14783
rtoes -11.6336
lfemur -55.2608 8.79625 -15.3074
ltibia 83.3173
lfoot -13.3005 -5.10148
ltoes -13.1003
19
root 0.258898 16.3267 -34.075 21.3906 -0.0319086 -1.77317
lowerback 9.85286 -0.346467 1.28469
upperback 0.210888 -0.0260282 5.26376
thorax -5.31885 0.0218905 4.8135
lowerneck -8.69566 -2.71298 -13.3729
upperneck 4.21311 -2.51029 6.59389
head 2.91539 -1.22115 4.03658
rclavicle -3.57812e-015 4.37326e-014
rhumerus -30.152 12.1551 -86.0517
rradius 62.1624
rwrist -2.90808
rhand -16.4343 9.949
rfingers 7.12502
rthumb 9.78116 -19.8038
lclavicle -3.57812e-015 4.37326e-014
lhumerus -45.0293 12.0857 85.2779
lradius 48.9797
lwrist 9.1383
lhand -15.1074 23.0102
lfingers 7.12502
lthumb 11.0612 52.6988
rfemur -1.15543 2.94565 27.4339
rtibia 17.3543
rfoot -25.3251 -6.91547
rtoes -12.8934
lfemur -56.185 9.19802 -16.0092
ltibia 83.4888
lfoot -14.9689 -5.77904
ltoes -17.67
20
root 0.263053 16.307 -33.9021 20.9447 0.320524 -1.61585
lowerback 10.8968 -0.515018 0.964762
upperback 0.170001 -0.225684 5.50125
thorax -5.93411 -0.0571071 5.30858
lowerneck -8.46422 -2.48485 -13.6047
upperneck 4.12556 -2.20409 6.51875
head 2.82258 -1.07726 4.06868
rclavicle -7.15625e-015 -4.92986e-014
rhumerus -30.4581 13.4473 -86.189
rradius 65.0524
rwrist -3.18455
rhand -17.2787 9.94972
rfingers 7.12502
rthumb 8.9664 -19.8397
lclavicle -7.15625e-015 -4.92986e-014
lhumerus -46.5387 12.5006 85.2537
lradius 50.8367
lwrist 10.3876
lhand -15.2665 24.2317
lfingers 7.12502
lthumb 10.9077 53.9284
rfemur 0.527954 2.63465 27.4226
rtibia 16.2135
rfoot -24.5971 -6.9477
rtoes -15.3362
lfemur -56.8364 9.23087 -16.5215
ltibia 83.4716
lfoot -15.7006 -6.86432
ltoes -18.7145
21
root 0.263403 16.2831 -33.7407 20.8336 0.331546 -1.54498
lowerback 11.4777 -0.322974 0.506796
upperback 0.24038 0.00482 5.71261
thorax -6.20747 0.0765922 5.77681
lowerneck -8.19443 -2.4842 -13.7943
upperneck 3.83664 -2.2107 6.43937
head 2.69367 -1.08352 4.07501
rclavicle -6.36111e-015 9.54166e-015
rhumerus -30.3052 14.1797 -86.0352
rradius 67.6649
rwrist -3.3428
rhand -18.3774 10.9458
rfingers 7.12502
rthumb 7.90613 -18.8863
lclavicle -6.36111e-015 9.54166e-015
lhumerus -47.3918 12.374 85.609
lradius 52.4011
lwrist 11.2199
lhand -15.7826 25.2382
lfingers 7.12502
lthumb 10.4099 54.9605
rfemur 1.68374 2.57226 27.3513
rtibia 15.4944
rfoot -23.9196 -6.92773
rtoes -18.2238
lfemur -57.8456 9.52481 -17.1092
ltibia 83.2679
lfoot -15.9215 -8.18614
ltoes -17.2129
22
root 0.262644 16.2585 -33.5815 21.5064 -0.24059 -1.65511
lowerback 10.3126 1.28947 2.35481
upperback 1.7489 2.14359 4.08184
thorax -4.03128 1.04886 2.63679
lowerneck -11.8967 -4.74003 -11.7713
upperneck 3.52548 -5.04647 7.038
head 3.44512 -2.37026 3.71315
rclavicle -2.78299e-014 -4.45278e-014
rhumerus -26.9631 9.08286 -85.9256
rradius 69.2587
rwrist -2.6004
rhand -19.5804 13.4154
rfingers 7.12502
rthumb 6.7449 -16.4571
lclavicle -2.78299e-014 -4.45278e-014
lhumerus -43.8409 6.88198 86.171
lradius 53.3288
lwrist 12.2178
lhand -16.1045 26.3815
lfingers 7.12502
lthumb 10.0993 56.1192
rfemur 1.7345 2.91112 27.1163
rtibia 15.1077
rfoot -23.13 -6.40733
rtoes -20.6217
lfemur -59.6182 10.2834 -17.8469
ltibia 82.8711
lfoot -16.186 -9.59472
ltoes -16.9966
23
root 0.26555 16.2508 -33.4104 22.9838 -1.38017 -1.94552
lowerback 11.0413 2.08639 2.52744
upperback 0.781731 3.27075 3.44754
thorax -5.43759 1.58438 1.68036
lowerneck -13.5452 -5.10189 -10.8113
upperneck 4.74677 -5.523 6.84727
head 4.09361 -2.58148 3.42822
rclavicle 1.82882e-014 1.35174e-014
rhumerus -27.5529 8.35162 -86.5013
rradius 71.5176
rwrist -2.76783
rhand -19.911 15.2327
rfingers 7.12502
rthumb 6.42574 -14.6498
lclavicle 1.82882e-014 1.35174e-014
lhumerus -45.1953 5.28546 85.7119
lradius 54.7948
lwrist 12.7362
lhand -15.7045 25.1093
lfingers 7.12502
lthumb 10.4852 54.8278
rfemur 0.540034 3.74455 26.6497
rtibia 15.2153
rfoot -22.4809 -5.06925
rtoes -19.427
lfemur -62.0897 11.4293 -18.8201
ltibia 82.2369
lfoot -16.3779 -10.6731
ltoes -17.1597
24
root 0.270861 16.2596 -33.2023 22.7767 -1.06474 -1.4981
lowerback 12.4516 0.0532823 -1.34212
upperback -1.03049 0.382956 6.33078
thorax -8.18861 0.41073 7.53669
lowerneck -7.80569 -2.00785 -14.5731
upperneck 3.65773 -1.51988 5.99154
head 2.5095 -0.767919 4.09538
rclavicle 3.97569e-015 -1.59028e-015
rhumerus -31.3564 18.5347 -86.3478
rradius 74.6382
rwrist -4.76538
rhand -18.8374 14.7008
rfingers 7.12502
rthumb 7.46209 -15.1476
lclavicle 3.97569e-015 -1.59028e-015
lhumerus -52.2215 13.8736 85.4796
lradius 57.5407
lwrist 12.8847
lhand -15.7482 24.3269
lfingers 7.12502
lthumb 10.4431 54.0475
rfemur 1.35633 3.87718 26.2757
rtibia 15.396
rfoot -22.2112 -4.32423
rtoes -14.4178
lfemur -62.3377 11.0407 -19.615
ltibia 81.274
lfoot -16.6184 -11.7887
ltoes -16.6794
25
root 0.272912 16.2567 -33.0021 22.79 -1.05363 -1.22612
lowerback 12.5969 0.159018 -1.187
upperback -0.801241 0.504533 5.89306
thorax -8.02991 0.441962 6.93067
lowerneck -8.18529 -2.1438 -14.1795
upperneck 3.59714 -1.69924 6.22889
head 2.56938 -0.836257 4.09672
rclavicle 9.54166e-015 -3.33958e-014
rhumerus -30.9247 18.8428 -86.7012
rradius 77.2888
rwrist -5.72401
rhand -18.6915 13.8111
rfingers 7.12502
rthumb 7.60292 -16.0322
lclavicle 9.54166e-015 -3.33958e-014
lhumerus -52.5699 13.0557 85.2243
lradius 59.1007
lwrist 13.7359
lhand -16.301 23.2351
lfingers 7.12502
lthumb 9.90976 52.9819
rfemur 2.08503 4.26336 25.9634
rtibia 15.3508
rfoot -21.6001 -3.66889
rtoes -11.1024
lfemur -62.8233 11.0204 -20.397
ltibia 80.3044
lfoot -16.5058 -12.9245
ltoes -15.7863
26
root 0.278103 16.2475 -32.8 22.7754 -0.727704 -0.953039
lowerback 13.2252 -0.447224 -2.55987
upperback -1.29443 -0.42212 6.72533
thorax -8.80199 0.116769 8.90378
lowerneck -6.67463 -1.28859 -15.2171
upperneck 3.27247 -0.675303 6.0582
head 2.12696 -0.356889 4.25687
rclavicle -2.62396e-014 1.11319e-014
rhumerus -32.0149 22.5844 -86.8596
rradius 79.8511
rwrist -6.73426
rhand -18.7333 13.4317
rfingers 7.12502
rthumb 7.56257 -16.4131
lclavicle -2.62396e-014 1.11319e-014
lhumerus -55.0971 15.4353 84.9821
lradius 61.0477
lwrist 14.387
lhand -16.3148 22.4648
lfingers 7.12502
lthumb 9.89645 52.2122
rfemur 3.06763 4.24025 25.8033
rtibia 14.934
rfoot -20.6071 -3.24744
rtoes -10.999
lfemur -63.2517 10.7118 -21.0387
ltibia 79.3662
lfoot -16.1835 -14.2436
ltoes -14.9479
27
root 0.293724 16.2352 -32.5788 22.2269 -0.327678 -0.626566
lowerback 12.7661 1.78685 3.06354
upperback 1.42662 2.92023 2.23758
thorax -5.61965 1.38197 0.119306
lowerneck -14.2381 -5.47057 -10.1491
upperneck 4.19097 -6.13201 7.83174
head 4.10278 -2.79981 3.56907
rclavicle 7.95139e-015 -1.19271e-014
rhumerus -26.9848 11.0384 -87.7655
rradius 81.3779
rwrist -5.39624
rhand -18.2465 13.2147
rfingers 7.12502
rthumb 8.03246 -16.6126
lclavicle 7.95139e-015 -1.19271e-014
lhumerus -47.7652 3.47989 84.4727
lradius 61.3701
lwrist 15.9301
lhand -16.5178 22.1971
lfingers 7.12502
lthumb 9.7006 51.9537
rfemur 4.58025 4.17043 25.6608
rtibia 14.7497
rfoot -19.5455 -3.28979
rtoes -12.1738
lfemur -62.8602 10.2909 -21.6078
ltibia 78.5075
lfoot -15.8018 -15.2929
ltoes -14.1293
28
root 0.306556 16.2254 -32.3494 21.8999 -0.387361 -0.436599
lowerback 12.6157 1.96418 3.34897
upperback 2.13255 3.12978 1.8066
thorax -4.74736 1.49394 -0.506562
lowerneck -14.7004 -5.75389 -9.55598
upperneck 3.55177 -6.55816 7.93488
head 4.00266 -2.98418 3.46401
rclavicle 3.89618e-014 -7.95139e-016
rhumerus -26.1063 11.1687 -87.7802
rradius 82.675
rwrist -4.73071
rhand -19.6392 18.3239
rfingers 7.12502
rthumb 6.68812 -11.5505
lclavicle 3.89618e-014 -7.95139e-016
lhumerus -47.2115 2.57222 84.3112
lradius 62.7632
lwrist 16.5858
lhand -17.9537 23.7659
lfingers 7.12502
lthumb 8.31504 53.5822
rfemur 5.75091 4.5941 25.4521
rtibia 14.6556
rfoot -18.1775 -3.18848
rtoes -10.0606
lfemur -62.5006 10.2737 -22.2116
ltibia 77.7665
lfoot -15.3815 -15.7926
ltoes -13.9444
29
root 0.308183 16.2217 -32.1179 22.1622 -0.301884 -0.371709
lowerback 12.452 2.05327 3.31778
upperback 2.11664 3.22856 1.66287
thorax -4.66399 1.54367 -0.648536
lowerneck -14.4162 -5.85992 -9.30662
upperneck 3.12593 -6.7579 8.00515
head 3.83966 -3.08216 3.43712
rclavicle -4.77083e-015 1.51076e-014
rhumerus -26.2106 11.6891 -87.7146
rradius 83.8793
rwrist -4.71928
rhand -17.0426 18.9843
rfingers 7.12502
rthumb 9.1942 -10.7953
lclavicle -4.77083e-015 1.51076e-014
lhumerus -47.6361 2.06113 84.2573
lradius 64.2185
lwrist 17.0394
lhand -19.2427 25.5765
lfingers 7.12502
lthumb 7.07091 55.4384
rfemur 6.0363 5.05707 25.4307
rtibia 14.8454
rfoot -16.6916 -2.80919
rtoes -22.1031
lfemur -62.7132 10.2464 -22.7163
ltibia 77.1572
lfoot -14.5891 -16.1351
ltoes -13.1786
30
root 0.310683 16.2166 -31.8779 22.2699 -0.0055548 -0.412943
lowerback 12.8235 1.90904 3.20143
upperback 1.73937 3.06325 1.80135
thorax -5.28617 1.45176 -0.435422
lowerneck -13.8789 -5.77774 -9.59252
upperneck 3.09586 -6.66075 8.21937
head 3.7559 -3.03937 3.56877
rclavicle -1.35174e-014 0
rhumerus -27.1549 13.6897 -87.8906
rradius 86.7055
rwrist -5.60643
rhand -18.7689 17.3261
rfingers 7.12502
rthumb 7.52826 -12.5199
lclavicle -1.35174e-014 0
lhumerus -48.7291 2.40188 84.0602
lradius 65.3631
lwrist 16.4435
lhand -17.1897 23.6133
lfingers 7.12502
lthumb 9.05226 53.399
rfemur 6.14944 5.16754 25.6259
rtibia 15.6848
rfoot -15.1975 -2.50263
rtoes -27.9847
lfemur -62.6319 10.142 -22.9936
ltibia 76.7245
lfoot -13.6398 -16.2603
ltoes -11.766
31
root 0.31388 16.2142 -31.6331 22.2132 0.0572574 -0.500122
lowerback 12.8595 1.88602 3.19489
upperback 1.84957 3.02723 1.76999
thorax -5.18931 1.43632 -0.457625
lowerneck -13.9376 -5.7462 -9.48179
upperneck 2.95092 -6.63691 8.36387
head 3.72141 -3.0179 3.59842
rclavicle -1.23246e-014 -9.54166e-015
rhumerus -27.1839 14.8544 -87.8271
rradius 87.7099
rwrist -5.64899
rhand -18.4861 19.0296
rfingers 7.12502
rthumb 7.8012 -10.8065
lclavicle -1.23246e-014 -9.54166e-015
lhumerus -48.8385 2.45462 83.888
lradius 66.1518
lwrist 16.2836
lhand -17.1525 22.8519
lfingers 7.12502
lthumb 9.08817 52.6361
rfemur 6.12532 5.13977 25.683
rtibia 17.1029
rfoot -13.673 -1.697
rtoes -26.9704
lfemur -62.1419 10.3151 -23.2684
ltibia 76.4353
lfoot -12.7564 -15.9753
ltoes -11.0539
